<svg width="50" height="50" viewBox="0 0 50 50" fill="none" xmlns="http://www.w3.org/2000/svg">
<path d="M45 0.000610352H5C2.23858 0.000610352 0 2.23919 0 5.00061V45.0006C0 47.762 2.23858 50.0006 5 50.0006H45C47.7614 50.0006 50 47.762 50 45.0006V5.00061C50 2.23919 47.7614 0.000610352 45 0.000610352Z" fill="url(#paint0_linear_1051_297)"/>
<path d="M25 13.0006C19.6667 13.0006 16.3333 15.6673 15 21.0006C17 18.3339 19.3333 17.3339 22 18.0006C23.5215 18.381 24.609 19.4848 25.8127 20.7066C27.7736 22.697 30.043 25.0006 35 25.0006C40.3333 25.0006 43.6667 22.3339 45 17.0006C43 19.6673 40.6667 20.6673 38 20.0006C36.4785 19.6202 35.391 18.5165 34.1873 17.2946C32.2264 15.3042 29.957 13.0006 25 13.0006ZM15 25.0006C9.66667 25.0006 6.33333 27.6673 5 33.0006C7 30.3339 9.33333 29.3339 12 30.0006C13.5215 30.381 14.609 31.4848 15.8127 32.7066C17.7736 34.697 20.043 37.0006 25 37.0006C30.3333 37.0006 33.6667 34.3339 35 29.0006C33 31.6673 30.6667 32.6673 28 32.0006C26.4785 31.6202 25.391 30.5165 24.1873 29.2946C22.2264 27.3042 19.957 25.0006 15 25.0006Z" fill="white"/>
<defs>
<linearGradient id="paint0_linear_1051_297" x1="-1.38889" y1="16.0006" x2="50" y2="33.7784" gradientUnits="userSpaceOnUse">
<stop stop-color="#2298BD"/>
<stop offset="1" stop-color="#0ED7B5"/>
</linearGradient>
</defs>
</svg>
